# Rhino

g object_1
v 6.3489670753479 0.04113058373332024 22.07229232788086
v 6.3489670753479 -4.958869457244873 22.07229232788086
v 6.3489670753479 -9.958868980407715 22.07229232788086
v 13.6983642578125 0.04113058373332024 22.07229232788086
v 13.6983642578125 -1.163688659667969 22.07229232788086
v 7.674268245697021 -1.163688659667969 22.07229232788086
v 7.674268245697021 -4.235977649688721 22.07229232788086
v 13.21643733978271 -4.235977649688721 22.07229232788086
v 13.21643733978271 -5.380556106567383 22.07229232788086
v 7.674268245697021 -5.380556106567383 22.07229232788086
v 7.674268245697021 -8.814291000366211 22.07229232788086
v 13.81884670257568 -8.814291000366211 22.07229232788086
v 13.81884670257568 -9.958868980407715 22.07229232788086
v 6.3489670753479 0.04113058373332024 0
v 6.3489670753479 -4.958869457244873 0
v 6.3489670753479 -9.958868980407715 0
v 13.6983642578125 0.04113058373332024 0
v 13.6983642578125 -1.163688659667969 0
v 7.674268245697021 -1.163688659667969 0
v 7.674268245697021 -4.235977649688721 0
v 13.21643733978271 -4.235977649688721 0
v 13.21643733978271 -5.380556106567383 0
v 7.674268245697021 -5.380556106567383 0
v 7.674268245697021 -8.814291000366211 0
v 13.81884670257568 -8.814291000366211 0
v 13.81884670257568 -9.958868980407715 0
v 6.3489670753479 0.04113058373332024 0
v 6.3489670753479 0.04113058373332024 22.07229232788086
v 6.3489670753479 -9.958868980407715 0
v 6.3489670753479 -9.958868980407715 22.07229232788086
v 6.3489670753479 -4.958869457244873 22.07229232788086
v 6.3489670753479 -4.958869457244873 0
v 6.3489670753479 -9.958868980407715 11.03614616394043
v 6.3489670753479 0.04113058373332024 11.03614616394043
v 6.3489670753479 -9.958868980407715 0
v 6.3489670753479 -9.958868980407715 22.07229232788086
v 13.81884670257568 -9.958868980407715 0
v 13.81884670257568 -9.958868980407715 22.07229232788086
v 6.3489670753479 -9.958868980407715 11.03614616394043
v 13.81884670257568 -9.958868980407715 11.03614616394043
v 13.81884670257568 -9.958868980407715 0
v 13.81884670257568 -9.958868980407715 22.07229232788086
v 13.81884670257568 -8.814291000366211 0
v 13.81884670257568 -8.814291000366211 22.07229232788086
v 13.81884670257568 -9.958868980407715 11.03614616394043
v 13.81884670257568 -8.814291000366211 11.03614616394043
v 13.81884670257568 -8.814291000366211 0
v 13.81884670257568 -8.814291000366211 22.07229232788086
v 7.674268245697021 -8.814291000366211 0
v 7.674268245697021 -8.814291000366211 22.07229232788086
v 13.81884670257568 -8.814291000366211 11.03614616394043
v 7.674268245697021 -8.814291000366211 11.03614616394043
v 7.674268245697021 -8.814291000366211 0
v 7.674268245697021 -8.814291000366211 22.07229232788086
v 7.674268245697021 -5.380556106567383 0
v 7.674268245697021 -5.380556106567383 22.07229232788086
v 7.674268245697021 -8.814291000366211 11.03614616394043
v 7.674268245697021 -5.380556106567383 11.03614616394043
v 7.674268245697021 -5.380556106567383 0
v 7.674268245697021 -5.380556106567383 22.07229232788086
v 13.21643733978271 -5.380556106567383 0
v 13.21643733978271 -5.380556106567383 22.07229232788086
v 7.674268245697021 -5.380556106567383 11.03614616394043
v 13.21643733978271 -5.380556106567383 11.03614616394043
v 13.21643733978271 -5.380556106567383 0
v 13.21643733978271 -5.380556106567383 22.07229232788086
v 13.21643733978271 -4.235977649688721 0
v 13.21643733978271 -4.235977649688721 22.07229232788086
v 13.21643733978271 -5.380556106567383 11.03614616394043
v 13.21643733978271 -4.235977649688721 11.03614616394043
v 13.21643733978271 -4.235977649688721 0
v 13.21643733978271 -4.235977649688721 22.07229232788086
v 7.674268245697021 -4.235977649688721 0
v 7.674268245697021 -4.235977649688721 22.07229232788086
v 13.21643733978271 -4.235977649688721 11.03614616394043
v 7.674268245697021 -4.235977649688721 11.03614616394043
v 7.674268245697021 -4.235977649688721 0
v 7.674268245697021 -4.235977649688721 22.07229232788086
v 7.674268245697021 -1.163688659667969 0
v 7.674268245697021 -1.163688659667969 22.07229232788086
v 7.674268245697021 -4.235977649688721 11.03614616394043
v 7.674268245697021 -1.163688659667969 11.03614616394043
v 7.674268245697021 -1.163688659667969 0
v 7.674268245697021 -1.163688659667969 22.07229232788086
v 13.6983642578125 -1.163688659667969 0
v 13.6983642578125 -1.163688659667969 22.07229232788086
v 7.674268245697021 -1.163688659667969 11.03614616394043
v 13.6983642578125 -1.163688659667969 11.03614616394043
v 13.6983642578125 -1.163688659667969 0
v 13.6983642578125 -1.163688659667969 22.07229232788086
v 13.6983642578125 0.04113058373332024 0
v 13.6983642578125 0.04113058373332024 22.07229232788086
v 13.6983642578125 -1.163688659667969 11.03614616394043
v 13.6983642578125 0.04113058373332024 11.03614616394043
v 13.6983642578125 0.04113058373332024 0
v 13.6983642578125 0.04113058373332024 22.07229232788086
v 6.3489670753479 0.04113058373332024 0
v 6.3489670753479 0.04113058373332024 22.07229232788086
v 6.3489670753479 0.04113058373332024 11.03614616394043
v 13.6983642578125 0.04113058373332024 11.03614616394043
vt 0.6259005665779114 0.00169213954359293
vt 0.7391647696495056 0.00169213954359293
vt 0.8524289131164551 0.00169213954359293
vt 0.6259005665779114 0.1681768298149109
vt 0.6531931161880493 0.1681768298149109
vt 0.6531931161880493 0.03171397000551224
vt 0.7227892279624939 0.03171397000551224
vt 0.7227892279624939 0.1572598069906235
vt 0.7487171292304993 0.1572598069906235
vt 0.7487171292304993 0.03171397000551224
vt 0.8265010118484497 0.03171397000551224
vt 0.8265010118484497 0.1709060817956924
vt 0.8524289131164551 0.1709060817956924
vt 0.08221042156219482 0.2287936359643936
vt 0.08221042156219482 0.1155294626951218
vt 0.08221042156219482 0.002265283605083823
vt 0.248695120215416 0.2287936359643936
vt 0.248695120215416 0.2015010714530945
vt 0.1122322529554367 0.2015010714530945
vt 0.1122322529554367 0.1319050043821335
vt 0.2377780973911285 0.1319050043821335
vt 0.2377780973911285 0.1059770584106445
vt 0.1122322529554367 0.1059770584106445
vt 0.1122322529554367 0.02819322794675827
vt 0.2514243721961975 0.02819322794675827
vt 0.2514243721961975 0.002265283605083823
vt 0.2591841220855713 0
vt 0.2591841220855713 0.49853515625
vt 0.485712468624115 0
vt 0.485712468624115 0.49853515625
vt 0.3724482953548431 0.49853515625
vt 0.3724482953548431 0
vt 0.485712468624115 0.249267578125
vt 0.2591841220855713 0.249267578125
vt 0.148744523525238 0.5
vt 0.148744523525238 0.99853515625
vt 0.3164936304092407 0.5
vt 0.3164936304092407 0.99853515625
vt 0.148744523525238 0.749267578125
vt 0.3164936304092407 0.749267578125
vt 0 0.5
vt 0 0.99853515625
vt 0.0244631003588438 0.5
vt 0.0244631003588438 0.99853515625
vt 0 0.749267578125
vt 0.0244631003588438 0.749267578125
vt 0.3179584741592407 0.5
vt 0.3179584741592407 0.99853515625
vt 0.4556857645511627 0.5
vt 0.4556857645511627 0.99853515625
vt 0.3179584741592407 0.749267578125
vt 0.4556857645511627 0.749267578125
vt 0 0
vt 0 0.49853515625
vt 0.07778383046388626 0
vt 0.07778383046388626 0.49853515625
vt 0 0.249267578125
vt 0.07778383046388626 0.249267578125
vt 0.7600981593132019 0.2566141486167908
vt 0.7600981593132019 0.7566141486167908
vt 0.8841791749000549 0.2566141486167908
vt 0.8841791749000549 0.7566141486167908
vt 0.7600981593132019 0.5066141486167908
vt 0.8841791749000549 0.5066141486167908
vt 0.0259279441088438 0.5
vt 0.0259279441088438 0.99853515625
vt 0.05039104446768761 0.5
vt 0.05039104446768761 0.99853515625
vt 0.0259279441088438 0.749267578125
vt 0.05039104446768761 0.749267578125
vt 0.4936759471893311 0
vt 0.4936759471893311 0.49853515625
vt 0.6192218065261841 0
vt 0.6192218065261841 0.49853515625
vt 0.4936759471893311 0.249267578125
vt 0.6192218065261841 0.249267578125
vt 0.07914846390485764 0.5
vt 0.07914846390485764 0.99853515625
vt 0.147279679775238 0.5
vt 0.147279679775238 0.99853515625
vt 0.07914846390485764 0.749267578125
vt 0.147279679775238 0.749267578125
vt 0.6236352920532227 0.2566141486167908
vt 0.6236352920532227 0.7566141486167908
vt 0.7586333155632019 0.2566141486167908
vt 0.7586333155632019 0.7566141486167908
vt 0.6236352920532227 0.5066141486167908
vt 0.7586333155632019 0.5066141486167908
vt 0.05185588821768761 0.5
vt 0.05185588821768761 0.99853515625
vt 0.07768362015485764 0.5
vt 0.07768362015485764 0.99853515625
vt 0.05185588821768761 0.749267578125
vt 0.07768362015485764 0.749267578125
vt 0.4571506083011627 0.5
vt 0.4571506083011627 0.99853515625
vt 0.6221704483032227 0.5
vt 0.6221704483032227 0.99853515625
vt 0.6221704483032227 0.749267578125
vt 0.4571506083011627 0.749267578125
vn 0 0 1
vn 0 0 1
vn 0 0 1
vn 0 0 1
vn 0 0 1
vn 0 0 1
vn 0 0 1
vn 0 0 1
vn 0 0 1
vn 0 0 1
vn 0 0 1
vn 0 0 1
vn 0 0 1
vn 0 0 -1
vn 0 0 -1
vn 0 0 -1
vn 0 0 -1
vn 0 0 -1
vn 0 0 -1
vn 0 0 -1
vn 0 0 -1
vn 0 0 -1
vn 0 0 -1
vn 0 0 -1
vn 0 0 -1
vn 0 0 -1
vn -1 0 0
vn -1 0 0
vn -1 0 0
vn -1 0 0
vn -1 0 0
vn -1 0 0
vn -1 0 0
vn -1 0 0
vn 0 -1 0
vn 0 -1 0
vn 0 -1 0
vn 0 -1 0
vn 0 -1 0
vn 0 -1 0
vn 1 0 0
vn 1 0 0
vn 1 0 0
vn 1 0 0
vn 1 0 0
vn 1 0 0
vn 0 1 0
vn 0 1 0
vn 0 1 0
vn 0 1 0
vn 0 1 0
vn 0 1 0
vn 1 0 0
vn 1 0 0
vn 1 0 0
vn 1 0 0
vn 1 0 0
vn 1 0 0
vn 0 -1 0
vn 0 -1 0
vn 0 -1 0
vn 0 -1 0
vn 0 -1 0
vn 0 -1 0
vn 1 0 0
vn 1 0 0
vn 1 0 0
vn 1 0 0
vn 1 0 0
vn 1 0 0
vn 0 1 0
vn 0 1 0
vn 0 1 0
vn 0 1 0
vn 0 1 0
vn 0 1 0
vn 1 0 0
vn 1 0 0
vn 1 0 0
vn 1 0 0
vn 1 0 0
vn 1 0 0
vn 0 -1 0
vn 0 -1 0
vn 0 -1 0
vn 0 -1 0
vn 0 -1 0
vn 0 -1 0
vn 1 0 0
vn 1 0 0
vn 1 0 0
vn 1 0 0
vn 1 0 0
vn 1 0 0
vn 0 1 0
vn 0 1 0
vn 0 1 0
vn 0 1 0
vn 0 1 0
vn 0 1 0
f 2/2/2 3/3/3 11/11/11 10/10/10
f 3/3/3 13/13/13 12/12/12 11/11/11
f 1/1/1 2/2/2 7/7/7 6/6/6
f 10/10/10 7/7/7 2/2/2
f 7/7/7 10/10/10 9/9/9 8/8/8
f 6/6/6 5/5/5 4/4/4 1/1/1
f 15/15/15 23/23/23 24/24/24 16/16/16
f 16/16/16 24/24/24 25/25/25 26/26/26
f 14/14/14 19/19/19 20/20/20 15/15/15
f 23/23/23 15/15/15 20/20/20
f 20/20/20 21/21/21 22/22/22 23/23/23
f 19/19/19 14/14/14 17/17/17 18/18/18
f 34/34/34 27/27/27 32/32/32
f 34/34/34 31/31/31 28/28/28
f 31/31/31 34/34/34 32/32/32
f 32/32/32 33/33/33 31/31/31
f 33/33/33 30/30/30 31/31/31
f 29/29/29 33/33/33 32/32/32
f 39/39/39 35/35/35 37/37/37 40/40/40
f 36/36/36 39/39/39 40/40/40 38/38/38
f 45/45/45 41/41/41 43/43/43 46/46/46
f 42/42/42 45/45/45 46/46/46 44/44/44
f 51/51/51 47/47/47 49/49/49 52/52/52
f 48/48/48 51/51/51 52/52/52 50/50/50
f 57/57/57 53/53/53 55/55/55 58/58/58
f 54/54/54 57/57/57 58/58/58 56/56/56
f 63/63/63 59/59/59 61/61/61 64/64/64
f 60/60/60 63/63/63 64/64/64 62/62/62
f 69/69/69 65/65/65 67/67/67 70/70/70
f 66/66/66 69/69/69 70/70/70 68/68/68
f 75/75/75 71/71/71 73/73/73 76/76/76
f 72/72/72 75/75/75 76/76/76 74/74/74
f 81/81/81 77/77/77 79/79/79 82/82/82
f 78/78/78 81/81/81 82/82/82 80/80/80
f 87/87/87 83/83/83 85/85/85 88/88/88
f 84/84/84 87/87/87 88/88/88 86/86/86
f 93/93/93 89/89/89 91/91/91 94/94/94
f 90/90/90 93/93/93 94/94/94 92/92/92
f 100/100/100 95/95/95 97/97/97 99/99/99
f 96/96/96 100/100/100 99/99/99 98/98/98
