# Rhino

g object_1
v 24.67650985717773 30.1517448425293 22.07229232788086
v 20.58012390136719 30.1517448425293 22.07229232788086
v 16.48373985290527 30.1517448425293 22.07229232788086
v 24.67650985717773 28.94692611694336 22.07229232788086
v 21.24277496337891 28.94692611694336 22.07229232788086
v 21.24277496337891 20.1517448425293 22.07229232788086
v 21.24277496337891 24.54933547973633 22.07229232788086
v 19.85723304748535 20.1517448425293 22.07229232788086
v 19.85723304748535 28.94692611694336 22.07229232788086
v 19.85723304748535 24.54933547973633 22.07229232788086
v 16.48373985290527 28.94692611694336 22.07229232788086
v 24.67650985717773 30.1517448425293 0
v 20.58012390136719 30.1517448425293 0
v 16.48373985290527 30.1517448425293 0
v 24.67650985717773 28.94692611694336 0
v 21.24277496337891 28.94692611694336 0
v 21.24277496337891 20.1517448425293 0
v 21.24277496337891 24.54933547973633 0
v 19.85723304748535 20.1517448425293 0
v 19.85723304748535 28.94692611694336 0
v 19.85723304748535 24.54933547973633 0
v 16.48373985290527 28.94692611694336 0
v 24.67650985717773 30.1517448425293 0
v 24.67650985717773 30.1517448425293 22.07229232788086
v 16.48373985290527 30.1517448425293 0
v 16.48373985290527 30.1517448425293 22.07229232788086
v 20.58012390136719 30.1517448425293 22.07229232788086
v 20.58012390136719 30.1517448425293 0
v 16.48373985290527 30.1517448425293 11.03614616394043
v 24.67650985717773 30.1517448425293 11.03614616394043
v 16.48373985290527 30.1517448425293 0
v 16.48373985290527 30.1517448425293 22.07229232788086
v 16.48373985290527 28.94692611694336 0
v 16.48373985290527 28.94692611694336 22.07229232788086
v 16.48373985290527 30.1517448425293 11.03614616394043
v 16.48373985290527 28.94692611694336 11.03614616394043
v 16.48373985290527 28.94692611694336 0
v 16.48373985290527 28.94692611694336 22.07229232788086
v 19.85723304748535 28.94692611694336 0
v 19.85723304748535 28.94692611694336 22.07229232788086
v 16.48373985290527 28.94692611694336 11.03614616394043
v 19.85723304748535 28.94692611694336 11.03614616394043
v 19.85723304748535 28.94692611694336 0
v 19.85723304748535 28.94692611694336 22.07229232788086
v 19.85723304748535 20.1517448425293 0
v 19.85723304748535 20.1517448425293 22.07229232788086
v 19.85723304748535 24.54933547973633 22.07229232788086
v 19.85723304748535 24.54933547973633 0
v 19.85723304748535 28.94692611694336 11.03614616394043
v 19.85723304748535 20.1517448425293 11.03614616394043
v 19.85723304748535 20.1517448425293 0
v 19.85723304748535 20.1517448425293 22.07229232788086
v 21.24277496337891 20.1517448425293 0
v 21.24277496337891 20.1517448425293 22.07229232788086
v 19.85723304748535 20.1517448425293 11.03614616394043
v 21.24277496337891 20.1517448425293 11.03614616394043
v 21.24277496337891 20.1517448425293 0
v 21.24277496337891 20.1517448425293 22.07229232788086
v 21.24277496337891 28.94692611694336 0
v 21.24277496337891 28.94692611694336 22.07229232788086
v 21.24277496337891 24.54933547973633 22.07229232788086
v 21.24277496337891 24.54933547973633 0
v 21.24277496337891 20.1517448425293 11.03614616394043
v 21.24277496337891 28.94692611694336 11.03614616394043
v 21.24277496337891 28.94692611694336 0
v 21.24277496337891 28.94692611694336 22.07229232788086
v 24.67650985717773 28.94692611694336 0
v 24.67650985717773 28.94692611694336 22.07229232788086
v 21.24277496337891 28.94692611694336 11.03614616394043
v 24.67650985717773 28.94692611694336 11.03614616394043
v 24.67650985717773 28.94692611694336 0
v 24.67650985717773 28.94692611694336 22.07229232788086
v 24.67650985717773 30.1517448425293 0
v 24.67650985717773 30.1517448425293 22.07229232788086
v 24.67650985717773 30.1517448425293 11.03614616394043
v 24.67650985717773 28.94692611694336 11.03614616394043
vt 0.8917450904846191 0.2546476125717163
vt 0.7891824841499329 0.2546476125717163
vt 0.6866198778152466 0.2546476125717163
vt 0.8917450904846191 0.2242709547281265
vt 0.8057734966278076 0.2242709547281265
vt 0.8057734966278076 0.002521263668313622
vt 0.8057734966278076 0.1133961006999016
vt 0.7710831761360168 0.002521263668313622
vt 0.7710831761360168 0.2242709547281265
vt 0.7710831761360168 0.1133961006999016
vt 0.6866198778152466 0.2242709547281265
vt 0.6202991604804993 0.6981469392776489
vt 0.517736554145813 0.6981469392776489
vt 0.4151739478111267 0.6981469392776489
vt 0.6202991604804993 0.6677703261375427
vt 0.5343275666236877 0.6677703261375427
vt 0.5343275666236877 0.446020632982254
vt 0.5343275666236877 0.5568954944610596
vt 0.4996372759342194 0.446020632982254
vt 0.4996372759342194 0.6677703261375427
vt 0.4996372759342194 0.5568954944610596
vt 0.4151739478111267 0.6677703261375427
vt 0.1199878379702568 0.443499356508255
vt 0.1199878379702568 0.99853515625
vt 0.3250843286514282 0.443499356508255
vt 0.3250843286514282 0.99853515625
vt 0.2225360870361328 0.99853515625
vt 0.2225360870361328 0.443499356508255
vt 0.3250843286514282 0.7210172414779663
vt 0.1199878379702568 0.7210172414779663
vt 0.6541919112205505 0
vt 0.6541919112205505 0.5565006136894226
vt 0.6831037402153015 0
vt 0.6831037402153015 0.5565006136894226
vt 0.6541919112205505 0.2782503068447113
vt 0.6831037402153015 0.2782503068447113
vt 0.03493316844105721 0.443499356508255
vt 0.03493316844105721 0.99853515625
vt 0.1185229942202568 0.443499356508255
vt 0.1185229942202568 0.99853515625
vt 0.03493316844105721 0.7210172414779663
vt 0.1185229942202568 0.7210172414779663
vt 0.5565006136894226 0.2217496782541275
vt 0 0.2217496782541275
vt 0.5565006136894226 0.442034512758255
vt 0 0.442034512758255
vt 0 0.3318921029567719
vt 0.5565006136894226 0.3318921029567719
vt 0.2782503068447113 0.2217496782541275
vt 0.2782503068447113 0.442034512758255
vt 0 0.443499356508255
vt 0 0.99853515625
vt 0.03346832469105721 0.443499356508255
vt 0.03346832469105721 0.99853515625
vt 0 0.7210172414779663
vt 0.03346832469105721 0.7210172414779663
vt 0.5565006136894226 0
vt 0 0
vt 0.5565006136894226 0.2202848345041275
vt 0 0.2202848345041275
vt 0 0.1101424172520638
vt 0.5565006136894226 0.1101424172520638
vt 0.2782503068447113 0
vt 0.2782503068447113 0.2202848345041275
vt 0.3265491724014282 0.443499356508255
vt 0.3265491724014282 0.99853515625
vt 0.411657840013504 0.443499356508255
vt 0.411657840013504 0.99853515625
vt 0.3265491724014282 0.7210172414779663
vt 0.411657840013504 0.7210172414779663
vt 0.6238152384757996 0
vt 0.6238152384757996 0.5565006136894226
vt 0.6527270674705505 0
vt 0.6527270674705505 0.5565006136894226
vt 0.6527270674705505 0.2782503068447113
vt 0.6238152384757996 0.2782503068447113
vn 0 0 1
vn 0 0 1
vn 0 0 1
vn 0 0 1
vn 0 0 1
vn 0 0 1
vn 0 0 1
vn 0 0 1
vn 0 0 1
vn 0 0 1
vn 0 0 1
vn 0 0 -1
vn 0 0 -1
vn 0 0 -1
vn 0 0 -1
vn 0 0 -1
vn 0 0 -1
vn 0 0 -1
vn 0 0 -1
vn 0 0 -1
vn 0 0 -1
vn 0 0 -1
vn 0 1 0
vn 0 1 0
vn 0 1 0
vn 0 1 0
vn 0 1 0
vn 0 1 0
vn 0 1 0
vn 0 1 0
vn -1 0 0
vn -1 0 0
vn -1 0 0
vn -1 0 0
vn -1 0 0
vn -1 0 0
vn 0 -1 0
vn 0 -1 0
vn 0 -1 0
vn 0 -1 0
vn 0 -1 0
vn 0 -1 0
vn -1 0 0
vn -1 0 0
vn -1 0 0
vn -1 0 0
vn -1 0 0
vn -1 0 0
vn -1 0 0
vn -1 0 0
vn 0 -1 0
vn 0 -1 0
vn 0 -1 0
vn 0 -1 0
vn 0 -1 0
vn 0 -1 0
vn 1 0 0
vn 1 0 0
vn 1 0 0
vn 1 0 0
vn 1 0 0
vn 1 0 0
vn 1 0 0
vn 1 0 0
vn 0 -1 0
vn 0 -1 0
vn 0 -1 0
vn 0 -1 0
vn 0 -1 0
vn 0 -1 0
vn 1 0 0
vn 1 0 0
vn 1 0 0
vn 1 0 0
vn 1 0 0
vn 1 0 0
f 10/10/10 8/8/8 6/6/6 7/7/7
f 11/11/11 9/9/9 2/2/2 3/3/3
f 9/9/9 10/10/10 7/7/7 5/5/5
f 9/9/9 5/5/5 2/2/2
f 1/1/1 2/2/2 5/5/5 4/4/4
f 21/21/21 18/18/18 17/17/17 19/19/19
f 22/22/22 14/14/14 13/13/13 20/20/20
f 20/20/20 16/16/16 18/18/18 21/21/21
f 20/20/20 13/13/13 16/16/16
f 12/12/12 15/15/15 16/16/16 13/13/13
f 30/30/30 23/23/23 28/28/28
f 30/30/30 27/27/27 24/24/24
f 27/27/27 30/30/30 28/28/28
f 28/28/28 29/29/29 27/27/27
f 29/29/29 26/26/26 27/27/27
f 25/25/25 29/29/29 28/28/28
f 35/35/35 31/31/31 33/33/33 36/36/36
f 32/32/32 35/35/35 36/36/36 34/34/34
f 41/41/41 37/37/37 39/39/39 42/42/42
f 38/38/38 41/41/41 42/42/42 40/40/40
f 49/49/49 43/43/43 48/48/48
f 49/49/49 47/47/47 44/44/44
f 47/47/47 49/49/49 48/48/48
f 48/48/48 50/50/50 47/47/47
f 50/50/50 46/46/46 47/47/47
f 45/45/45 50/50/50 48/48/48
f 55/55/55 51/51/51 53/53/53 56/56/56
f 52/52/52 55/55/55 56/56/56 54/54/54
f 63/63/63 57/57/57 62/62/62
f 63/63/63 61/61/61 58/58/58
f 64/64/64 63/63/63 62/62/62 59/59/59
f 63/63/63 64/64/64 60/60/60 61/61/61
f 69/69/69 65/65/65 67/67/67 70/70/70
f 66/66/66 69/69/69 70/70/70 68/68/68
f 76/76/76 71/71/71 73/73/73 75/75/75
f 72/72/72 76/76/76 75/75/75 74/74/74
