# Rhino

g object_1
v 4.126505851745605 -3.575023412704468 10
v 0.0301204826682806 -3.575023412704468 10
v -4.066265106201172 -3.575023412704468 10
v 4.126505851745605 -3.575023412704468 8.795180320739746
v 0.6927710771560669 -3.575023412704468 8.795180320739746
v 0.6927710771560669 -3.575023412704468 0
v 0.6927710771560669 -3.575023412704468 4.397590160369873
v -0.6927710771560669 -3.575023412704468 0
v -0.6927710771560669 -3.575023412704468 8.795180320739746
v -0.6927710771560669 -3.575023412704468 4.397590160369873
v -4.066265106201172 -3.575023412704468 8.795180320739746
v 4.126505851745605 3.575023412704468 10
v 0.0301204826682806 3.575023412704468 10
v -4.066265106201172 3.575023412704468 10
v 4.126505851745605 3.575023412704468 8.795180320739746
v 0.6927710771560669 3.575023412704468 8.795180320739746
v 0.6927710771560669 3.575023412704468 0
v 0.6927710771560669 3.575023412704468 4.397590160369873
v -0.6927710771560669 3.575023412704468 0
v -0.6927710771560669 3.575023412704468 8.795180320739746
v -0.6927710771560669 3.575023412704468 4.397590160369873
v -4.066265106201172 3.575023412704468 8.795180320739746
v 4.126505851745605 3.575023412704468 10
v 4.126505851745605 -3.575023412704468 10
v -4.066265106201172 3.575023412704468 10
v -4.066265106201172 -3.575023412704468 10
v 0.0301204826682806 -3.575023412704468 10
v 0.0301204826682806 3.575023412704468 10
v -4.066265106201172 0 10
v 4.126505851745605 0 10
v -4.066265106201172 3.575023412704468 10
v -4.066265106201172 -3.575023412704468 10
v -4.066265106201172 3.575023412704468 8.795180320739746
v -4.066265106201172 -3.575023412704468 8.795180320739746
v -4.066265106201172 0 10
v -4.066265106201172 0 8.795180320739746
v -4.066265106201172 3.575023412704468 8.795180320739746
v -4.066265106201172 -3.575023412704468 8.795180320739746
v -0.6927710771560669 3.575023412704468 8.795180320739746
v -0.6927710771560669 -3.575023412704468 8.795180320739746
v -4.066265106201172 0 8.795180320739746
v -0.6927710771560669 0 8.795180320739746
v -0.6927710771560669 3.575023412704468 8.795180320739746
v -0.6927710771560669 -3.575023412704468 8.795180320739746
v -0.6927710771560669 3.575023412704468 0
v -0.6927710771560669 -3.575023412704468 0
v -0.6927710771560669 -3.575023412704468 4.397590160369873
v -0.6927710771560669 3.575023412704468 4.397590160369873
v -0.6927710771560669 0 8.795180320739746
v -0.6927710771560669 0 0
v -0.6927710771560669 3.575023412704468 0
v -0.6927710771560669 -3.575023412704468 0
v 0.6927710771560669 3.575023412704468 0
v 0.6927710771560669 -3.575023412704468 0
v -0.6927710771560669 0 0
v 0.6927710771560669 0 0
v 0.6927710771560669 3.575023412704468 0
v 0.6927710771560669 -3.575023412704468 0
v 0.6927710771560669 3.575023412704468 8.795180320739746
v 0.6927710771560669 -3.575023412704468 8.795180320739746
v 0.6927710771560669 -3.575023412704468 4.397590160369873
v 0.6927710771560669 3.575023412704468 4.397590160369873
v 0.6927710771560669 0 0
v 0.6927710771560669 0 8.795180320739746
v 0.6927710771560669 3.575023412704468 8.795180320739746
v 0.6927710771560669 -3.575023412704468 8.795180320739746
v 4.126505851745605 3.575023412704468 8.795180320739746
v 4.126505851745605 -3.575023412704468 8.795180320739746
v 0.6927710771560669 0 8.795180320739746
v 4.126505851745605 0 8.795180320739746
v 4.126505851745605 3.575023412704468 8.795180320739746
v 4.126505851745605 -3.575023412704468 8.795180320739746
v 4.126505851745605 3.575023412704468 10
v 4.126505851745605 -3.575023412704468 10
v 4.126505851745605 0 10
v 4.126505851745605 0 8.795180320739746
vt 0.003678110660985112 0.3029011785984039
vt 0.003678110660985112 0.1529501080513
vt 0.003678110660985112 0.002999021904543042
vt 0.04799254238605499 0.3029011785984039
vt 0.04799254238605499 0.1772069036960602
vt 0.3714880645275116 0.1772069036960602
vt 0.2097403109073639 0.1772069036960602
vt 0.3714880645275116 0.1264881491661072
vt 0.04799254238605499 0.1264881491661072
vt 0.2097403109073639 0.1264881491661072
vt 0.04799254238605499 0.002999021904543042
vt 0.6284975409507751 0.6885989308357239
vt 0.6284975409507751 0.5379297733306885
vt 0.6284975409507751 0.3872606456279755
vt 0.6726389527320862 0.6885989308357239
vt 0.6726389527320862 0.5623027682304382
vt 0.9948714375495911 0.5623027682304382
vt 0.8337551951408386 0.5623027682304382
vt 0.9948714375495911 0.5113410949707031
vt 0.6726389527320862 0.5113410949707031
vt 0.8337551951408386 0.5113410949707031
vt 0.6726389527320862 0.3872606456279755
vt 0 0.478007972240448
vt 0 0.740993857383728
vt 0.2998734414577484 0.478007972240448
vt 0.2998734414577484 0.740993857383728
vt 0.1499367207288742 0.740993857383728
vt 0.1499367207288742 0.478007972240448
vt 0.2998734414577484 0.6095008850097656
vt 0 0.6095008850097656
vt 0.6878869533538818 0
vt 0.6878869533538818 0.2629858553409576
vt 0.7322013974189758 0
vt 0.7322013974189758 0.2629858553409576
vt 0.6878869533538818 0.1314929276704788
vt 0.7322013974189758 0.1314929276704788
vt 0.8234512209892273 0
vt 0.8234512209892273 0.2629858553409576
vt 0.9475317001342773 0
vt 0.9475317001342773 0.2629858553409576
vt 0.8234512209892273 0.1314929276704788
vt 0.9475317001342773 0.1314929276704788
vt 0.3013382852077484 0.5703509449958801
vt 0.3013382852077484 0.8318719267845154
vt 0.6233689785003662 0.5703509449958801
vt 0.6233689785003662 0.8318719267845154
vt 0.4623536467552185 0.8318719267845154
vt 0.4623536467552185 0.5703509449958801
vt 0.3013382852077484 0.7011114358901978
vt 0.6233689785003662 0.7011114358901978
vt 0.7509400844573975 0
vt 0.7509400844573975 0.2629858553409576
vt 0.8019016981124878 0
vt 0.8019016981124878 0.2629858553409576
vt 0.7509400844573975 0.1314929276704788
vt 0.8019016981124878 0.1314929276704788
vt 0.3013382852077484 0.3073650598526001
vt 0.3013382852077484 0.5688861012458801
vt 0.6233689785003662 0.3073650598526001
vt 0.6233689785003662 0.5688861012458801
vt 0.4623536467552185 0.5688861012458801
vt 0.4623536467552185 0.3073650598526001
vt 0.3013382852077484 0.4381255805492401
vt 0.6233689785003662 0.4381255805492401
vt 0.2629858553409576 0.3073650598526001
vt 0 0.3073650598526001
vt 0.2629858553409576 0.4336612522602081
vt 0 0.4336612522602081
vt 0.1314929276704788 0.3073650598526001
vt 0.1314929276704788 0.4336612522602081
vt 0.6248338222503662 0
vt 0.6248338222503662 0.2629858553409576
vt 0.6691482663154602 0
vt 0.6691482663154602 0.2629858553409576
vt 0.6691482663154602 0.1314929276704788
vt 0.6248338222503662 0.1314929276704788
vn 0 -1 0
vn 0 -1 0
vn 0 -1 0
vn 0 -1 0
vn 0 -1 0
vn 0 -1 0
vn 0 -1 0
vn 0 -1 0
vn 0 -1 0
vn 0 -1 0
vn 0 -1 0
vn 0 1 0
vn 0 1 0
vn 0 1 0
vn 0 1 0
vn 0 1 0
vn 0 1 0
vn 0 1 0
vn 0 1 0
vn 0 1 0
vn 0 1 0
vn 0 1 0
vn 0 0 1
vn 0 0 1
vn 0 0 1
vn 0 0 1
vn 0 0 1
vn 0 0 1
vn 0 0 1
vn 0 0 1
vn -1 0 0
vn -1 0 0
vn -1 0 0
vn -1 0 0
vn -1 0 0
vn -1 0 0
vn 0 0 -1
vn 0 0 -1
vn 0 0 -1
vn 0 0 -1
vn 0 0 -1
vn 0 0 -1
vn -1 0 0
vn -1 0 0
vn -1 0 0
vn -1 0 0
vn -1 0 0
vn -1 0 0
vn -1 0 0
vn -1 0 0
vn 0 0 -1
vn 0 0 -1
vn 0 0 -1
vn 0 0 -1
vn 0 0 -1
vn 0 0 -1
vn 1 0 0
vn 1 0 0
vn 1 0 0
vn 1 0 0
vn 1 0 0
vn 1 0 0
vn 1 0 0
vn 1 0 0
vn 0 0 -1
vn 0 0 -1
vn 0 0 -1
vn 0 0 -1
vn 0 0 -1
vn 0 0 -1
vn 1 0 0
vn 1 0 0
vn 1 0 0
vn 1 0 0
vn 1 0 0
vn 1 0 0
f 10/10/10 8/8/8 6/6/6 7/7/7
f 11/11/11 9/9/9 2/2/2 3/3/3
f 9/9/9 10/10/10 7/7/7 5/5/5
f 9/9/9 5/5/5 2/2/2
f 1/1/1 2/2/2 5/5/5 4/4/4
f 21/21/21 18/18/18 17/17/17 19/19/19
f 22/22/22 14/14/14 13/13/13 20/20/20
f 20/20/20 16/16/16 18/18/18 21/21/21
f 20/20/20 13/13/13 16/16/16
f 12/12/12 15/15/15 16/16/16 13/13/13
f 30/30/30 23/23/23 28/28/28
f 30/30/30 27/27/27 24/24/24
f 29/29/29 30/30/30 28/28/28
f 30/30/30 29/29/29 27/27/27
f 29/29/29 26/26/26 27/27/27
f 25/25/25 29/29/29 28/28/28
f 35/35/35 31/31/31 33/33/33 36/36/36
f 32/32/32 35/35/35 36/36/36 34/34/34
f 41/41/41 37/37/37 39/39/39 42/42/42
f 38/38/38 41/41/41 42/42/42 40/40/40
f 49/49/49 43/43/43 48/48/48
f 49/49/49 47/47/47 44/44/44
f 50/50/50 49/49/49 48/48/48 45/45/45
f 49/49/49 50/50/50 46/46/46 47/47/47
f 55/55/55 51/51/51 53/53/53 56/56/56
f 52/52/52 55/55/55 56/56/56 54/54/54
f 63/63/63 57/57/57 62/62/62
f 63/63/63 61/61/61 58/58/58
f 61/61/61 63/63/63 62/62/62
f 62/62/62 64/64/64 61/61/61
f 64/64/64 60/60/60 61/61/61
f 59/59/59 64/64/64 62/62/62
f 69/69/69 65/65/65 67/67/67 70/70/70
f 66/66/66 69/69/69 70/70/70 68/68/68
f 76/76/76 71/71/71 73/73/73 75/75/75
f 72/72/72 76/76/76 75/75/75 74/74/74
